<svg width="909" height="372" viewBox="0 0 909 372" fill="none" xmlns="http://www.w3.org/2000/svg">
<g clip-path="url(#clip0_65_95)">
<g clip-path="url(#clip1_65_95)">
<path d="M366.255 -0.315912L420 88.5673C401.984 118.287 383.98 148.031 366.044 177.799H258.131C240.146 148.055 222.145 118.319 204.175 88.5673C222.145 58.8126 240.146 29.0742 258.131 -0.669617H366.044L366.255 -0.315912ZM418.318 88.5673L365.207 0.728877H258.966L205.854 88.5673L258.966 176.406H365.207L418.318 88.5673Z" fill="white" fill-opacity="0.07"/>
<path d="M364.996 177.451L311.459 88.9156L312.719 88.2191L366.255 176.754L364.996 177.451Z" fill="white" fill-opacity="0.07"/>
<path d="M257.92 176.754L364.996 -0.32135L366.255 0.380618L259.179 177.451L257.92 176.754Z" fill="white" fill-opacity="0.07"/>
<path d="M338.224 132.484L391.761 43.9489L393.021 44.6454L339.484 133.183L338.224 132.484Z" fill="white" fill-opacity="0.07"/>
<path d="M351.612 154.618L405.145 66.0826L406.408 66.7792L352.871 155.314L351.612 154.618Z" fill="white" fill-opacity="0.07"/>
<path d="M324.84 110.353L378.377 21.8124L379.642 22.5144L326.106 111.049L324.84 110.353Z" fill="white" fill-opacity="0.07"/>
<path d="M177.828 220.671L204.175 177.105L177.828 133.531H125.127L98.7834 177.105L125.127 220.671H177.828ZM205.648 177.451L178.664 222.066H124.292C115.229 207.077 106.151 192.094 97.1018 177.097C106.151 162.103 115.22 147.119 124.292 132.136H178.669C187.713 147.133 196.782 162.116 205.854 177.097L205.648 177.451Z" fill="white" fill-opacity="0.07"/>
<path d="M125.341 132.484L151.904 176.406H205.016V177.799H151.057L124.081 133.183L125.341 132.484Z" fill="white" fill-opacity="0.07"/>
<path d="M205.016 176.406H259.815L205.016 267.03L177.615 221.718L178.877 221.019L205.016 264.247L257.29 177.799H205.016V176.406Z" fill="white" fill-opacity="0.07"/>
<path d="M97.9426 177.799H45.6715L97.9426 264.247L124.081 221.019L125.344 221.718L97.9426 267.03C79.662 236.827 61.3956 206.615 43.1463 176.406H97.9426V177.799Z" fill="white" fill-opacity="0.07"/>
<path d="M125.341 221.022L152.32 265.64C143.228 280.607 134.168 295.604 125.127 310.601H69.906L97.3099 265.289L98.5753 265.986L72.4369 309.208H124.292L150.638 265.637L124.081 221.715L125.341 221.022Z" fill="white" fill-opacity="0.07"/>
<path d="M98.5754 265.292L125.341 309.557L124.081 310.25L97.3099 265.986L98.5754 265.292Z" fill="white" fill-opacity="0.07"/>
<path d="M232.414 177.451L192.262 243.849L191.002 243.158L231.151 176.754L232.414 177.451Z" fill="white" fill-opacity="0.07"/>
<path d="M85.1883 287.428L98.5753 309.557L97.3099 310.25L83.9286 288.119L85.1883 287.428Z" fill="white" fill-opacity="0.07"/>
<path d="M17.2188 220.671L43.1463 177.799H-61.4017L-35.4799 220.671H17.2188ZM45.0387 177.451L18.0567 222.066H-36.3178L-63.9269 176.406H45.6715L45.0387 177.451Z" fill="white" fill-opacity="0.07"/>
<path d="M17.6406 220.673H71.1772V222.064H17.6406V220.673Z" fill="white" fill-opacity="0.07"/>
<path d="M18.2677 221.715L-8.71152 266.334C-18.1939 266.32 -27.679 266.334 -37.1614 266.334L-23.1445 243.158L-21.8819 243.855L-34.6362 264.941H-9.5466L17.0079 221.022L18.2677 221.715Z" fill="white" fill-opacity="0.07"/>
<path d="M-8.49785 221.022L4.88629 243.158L3.62084 243.849L-9.76331 221.715L-8.49785 221.022Z" fill="white" fill-opacity="0.07"/>
<path d="M17.2188 132.136L43.1463 89.2639H-61.4017L-35.4799 132.136H17.2188ZM45.0387 88.9102L18.0567 133.531H-36.3178L-63.9269 87.8654H45.6715L45.0387 88.9102Z" fill="white" fill-opacity="0.07"/>
<path d="M-9.76331 176.754L17.2187 132.136H124.714V133.531H18.0567L-8.49785 177.451L-9.76331 176.754Z" fill="white" fill-opacity="0.07"/>
<path d="M152.112 132.487L178.877 176.754L177.615 177.451L150.846 133.18L152.112 132.487Z" fill="white" fill-opacity="0.07"/>
<path d="M4.25366 154.269H111.327V155.668H4.25366V154.269Z" fill="white" fill-opacity="0.07"/>
<mask id="mask0_65_95" style="mask-type:luminance" maskUnits="userSpaceOnUse" x="43" y="-2" width="110" height="92">
<path d="M43.5111 -1.49945H152.226V89.5604H43.5111V-1.49945Z" fill="white"/>
</mask>
<g mask="url(#mask0_65_95)">
<path d="M150.846 88.9101L97.9426 1.42539L45.0388 88.9156L43.7733 88.2191L97.9426 -1.36072L152.112 88.2191L150.846 88.9101Z" fill="white" fill-opacity="0.07"/>
</g>
<path d="M124.714 43.6033H179.51C170.298 58.8181 161.073 74.0274 151.898 89.2639H44.406V87.8708H151.057L176.985 44.9937H124.714V43.6033Z" fill="white" fill-opacity="0.07"/>
<path d="M18.2676 43.9516L32.2845 67.1328H2.98816L17.6406 42.9068L18.2676 43.9516ZM29.7593 65.7316L17.6406 45.6902L5.51621 65.7316H29.7593Z" fill="white" fill-opacity="0.07"/>
<path d="M285.95 221.022L299.962 244.203H270.671L285.318 219.982L285.95 221.022ZM297.442 242.804L285.318 222.76L273.196 242.804H297.442Z" fill="white" fill-opacity="0.07"/>
<mask id="mask1_65_95" style="mask-type:luminance" maskUnits="userSpaceOnUse" x="16" y="286" width="57" height="47">
<path d="M16.5148 286.677H72.491V332.738H16.5148V286.677Z" fill="white"/>
</mask>
<g mask="url(#mask1_65_95)">
<path d="M58.42 287.428L72.0151 309.905C67.4036 317.51 62.8006 325.125 58.2062 332.738C49.0089 332.738 39.8031 332.724 30.6 332.738L16.7941 309.905L30.6 287.075C39.8031 287.075 49.0089 287.061 58.2062 287.08L58.42 287.428ZM70.3306 309.905L57.3655 288.468H31.4408L18.4813 309.905L31.4408 331.345H57.3655L70.3306 309.905Z" fill="white" fill-opacity="0.07"/>
</g>
<path d="M58.4201 288.114L45.2468 309.905L58.4201 331.693L57.1574 332.384L43.5652 309.905L57.1574 287.423L58.4201 288.114Z" fill="white" fill-opacity="0.07"/>
</g>
</g>
<defs>
<clipPath id="clip0_65_95">
<rect width="1080" height="1031" fill="white" transform="translate(-171 -659)"/>
</clipPath>
<clipPath id="clip1_65_95">
<rect width="591" height="564.186" fill="white" transform="translate(-171 -85.2676)"/>
</clipPath>
</defs>
</svg>
