<svg width="518" height="506" viewBox="0 0 518 506" fill="none" xmlns="http://www.w3.org/2000/svg">
<mask id="mask0_88_203" style="mask-type:luminance" maskUnits="userSpaceOnUse" x="487" y="252" width="47" height="38">
<path d="M487.057 252.375H533.728V289.857H487.057V252.375Z" fill="white"/>
</mask>
<g mask="url(#mask0_88_203)">
<path d="M488.064 252.566H533.587C525.865 264.837 518.141 277.109 510.43 289.383C502.705 277.116 494.989 264.842 487.272 252.566H488.064ZM532.006 253.403H488.853L510.43 287.712L532.006 253.403Z" fill="white" fill-opacity="0.2"/>
</g>
<path d="M443.067 253.403H398.856L376.75 288.549L398.856 323.693H443.067L465.172 288.549L443.067 253.403ZM398.593 252.566H443.587C451.115 264.571 458.672 276.558 466.222 288.549C458.654 300.53 451.115 312.531 443.587 324.532H398.33C390.781 312.538 383.245 300.545 375.704 288.549C383.226 276.543 390.789 264.559 398.33 252.566H398.593Z" fill="white" fill-opacity="0.2"/>
<path d="M443.726 253.195L398.989 324.317L398.202 323.902L442.931 252.773L443.726 253.195Z" fill="white" fill-opacity="0.2"/>
<path d="M442.931 252.773L464.906 217.844H286.761V217.005H466.487L443.726 253.195L442.931 252.773Z" fill="white" fill-opacity="0.2"/>
<path d="M354.255 324.317L332.285 359.256H375.964L398.202 323.902L398.989 324.317L376.487 360.096H330.704L353.465 323.902L354.255 324.317Z" fill="white" fill-opacity="0.2"/>
<path d="M287.155 217.214L376.62 359.466L375.831 359.881L286.36 217.632L287.155 217.214Z" fill="white" fill-opacity="0.2"/>
<path d="M353.859 252.566H377.016L365.043 271.602L353.069 252.566H353.859ZM375.435 253.403H354.65L365.043 269.93L375.435 253.403Z" fill="white" fill-opacity="0.2"/>
<path d="M308.731 252.773L331.1 217.212L331.889 217.632L309.518 253.195L308.731 252.773Z" fill="white" fill-opacity="0.2"/>
<mask id="mask1_88_203" style="mask-type:luminance" maskUnits="userSpaceOnUse" x="464" y="181" width="70" height="38">
<path d="M464.609 181.16H533.728V218.017H464.609V181.16Z" fill="white"/>
</mask>
<g mask="url(#mask1_88_203)">
<path d="M510.43 217.844H464.901C472.532 205.709 480.161 193.571 487.801 181.441H533.587C525.956 193.576 518.303 205.702 510.69 217.844H510.43ZM466.487 217.005H510.167L532.006 182.281H488.324L466.487 217.005Z" fill="white" fill-opacity="0.2"/>
</g>
<path d="M465.435 146.717H421.222L399.387 181.441H487.272L465.435 146.717ZM420.959 145.878H465.959C473.569 158.023 481.222 170.15 488.853 182.281H397.806C405.43 170.145 413.067 158.013 420.698 145.878H420.959Z" fill="white" fill-opacity="0.2"/>
<mask id="mask2_88_203" style="mask-type:luminance" maskUnits="userSpaceOnUse" x="353" y="145" width="47" height="38">
<path d="M353.048 145.46H399.985V182.41H353.048V145.46Z" fill="white"/>
</mask>
<g mask="url(#mask2_88_203)">
<path d="M354.65 181.441H397.803L376.227 147.137L354.65 181.441ZM398.593 182.281H353.069C360.781 170.007 368.505 157.735 376.227 145.463L399.387 182.281H398.593Z" fill="white" fill-opacity="0.2"/>
</g>
<path d="M286.36 217.214L309.127 181.024L331.889 217.212L331.1 217.632L309.122 182.7L287.155 217.632L286.36 217.214Z" fill="white" fill-opacity="0.2"/>
<mask id="mask3_88_203" style="mask-type:luminance" maskUnits="userSpaceOnUse" x="408" y="341" width="26" height="20">
<path d="M408.828 341.081H433.317V360.51H408.828V341.081Z" fill="white"/>
</mask>
<g mask="url(#mask3_88_203)">
<path d="M409.777 341.469H432.937L420.959 360.51C416.967 354.166 412.976 347.821 408.985 341.469H409.777ZM431.354 342.311H410.572L420.959 358.836L431.354 342.311Z" fill="white" fill-opacity="0.2"/>
</g>
<path d="M197.29 217.005H287.55L242.024 289.383L208.211 235.626H185.317L197.027 217.005H197.29ZM285.967 217.844H197.548L186.898 234.786H208.735L242.024 287.712L285.967 217.844Z" fill="white" fill-opacity="0.2"/>
<path d="M286.496 288.969H242.285L220.182 324.11L242.285 359.256H286.496L308.598 324.11L286.496 288.969ZM242.024 288.129H287.022C294.544 300.13 302.083 312.131 309.651 324.11C302.109 336.101 294.544 348.09 287.022 360.096H241.761C234.218 348.097 226.655 336.111 219.133 324.11C226.679 312.116 234.218 300.123 241.761 288.129H242.024Z" fill="white" fill-opacity="0.2"/>
<path d="M287.155 288.759L242.418 359.881L241.628 359.466L286.36 288.341L287.155 288.759Z" fill="white" fill-opacity="0.2"/>
<path d="M309.122 324.532H264.39V323.693H309.122V324.532Z" fill="white" fill-opacity="0.2"/>
<path d="M297.943 306.75H275.574V305.908H297.943V306.75Z" fill="white" fill-opacity="0.2"/>
<path d="M421.355 253.195L387.805 306.536L387.015 306.121L420.565 252.773L421.355 253.195Z" fill="white" fill-opacity="0.2"/>
<path d="M174.528 324.317L152.03 288.549C159.637 276.406 167.288 264.283 174.924 252.148L197.814 288.549C190.164 300.672 182.556 312.817 174.924 324.952L174.528 324.317ZM153.082 288.549L174.924 323.27L196.761 288.549L174.924 253.825L153.082 288.549Z" fill="white" fill-opacity="0.2"/>
<path d="M130.188 323.693H175.711C168.079 335.823 160.432 347.951 152.816 360.096H129.396L140.846 341.892L129.396 323.693H130.188ZM174.133 324.532H130.977L141.898 341.892L130.977 359.256H152.296L174.133 324.532Z" fill="white" fill-opacity="0.2"/>
<mask id="mask4_88_203" style="mask-type:luminance" maskUnits="userSpaceOnUse" x="218" y="145" width="48" height="38">
<path d="M218.359 145.46H265.296V182.41H218.359V145.46Z" fill="white"/>
</mask>
<g mask="url(#mask4_88_203)">
<path d="M220.448 181.441H263.601L242.024 147.137L220.448 181.441ZM264.39 182.281H218.867C226.578 170.007 234.303 157.735 242.024 145.463L265.179 182.281H264.39Z" fill="white" fill-opacity="0.2"/>
</g>
<path d="M241.628 181.651L252.813 163.874L253.602 164.289L242.418 182.071L241.628 181.651Z" fill="white" fill-opacity="0.2"/>
<path d="M175.711 181.441H196.501L186.106 164.919L175.711 181.441ZM197.29 182.281H174.133C178.121 175.934 182.112 169.587 186.106 163.242L198.079 182.281H197.29Z" fill="white" fill-opacity="0.2"/>
<path d="M129.924 182.281H85.7164L63.611 217.427L85.7164 252.566H129.924L152.03 217.427L129.924 182.281ZM85.4534 181.441H130.448C137.971 193.442 145.528 205.44 153.082 217.427C145.528 229.408 137.971 241.402 130.448 253.403H85.1929C77.6491 241.409 70.0973 229.423 62.5588 217.427C70.0973 205.428 77.6491 193.435 85.1929 181.441H85.4534Z" fill="white" fill-opacity="0.2"/>
<path d="M152.553 217.844H63.0876V217.005H152.553V217.844Z" fill="white" fill-opacity="0.2"/>
<path d="M85.0601 252.773L107.426 217.214L108.215 217.632L85.8493 253.195L85.0601 252.773Z" fill="white" fill-opacity="0.2"/>
<path d="M85.4534 324.532H39.9273C47.5588 312.399 55.185 300.257 62.8245 288.129H108.082C111.978 294.339 115.892 300.545 119.795 306.75H96.9006L85.7164 324.532H85.4534ZM41.511 323.693H85.1929L96.3745 305.908H118.214L107.559 288.969H63.3506L41.511 323.693Z" fill="white" fill-opacity="0.2"/>
<mask id="mask5_88_203" style="mask-type:luminance" maskUnits="userSpaceOnUse" x="17" y="252" width="26" height="20">
<path d="M17.4207 252.375H42.1753V271.741H17.4207V252.375Z" fill="white"/>
</mask>
<g mask="url(#mask5_88_203)">
<path d="M18.3507 252.566H41.511L29.5349 271.602L17.5615 252.566H18.3507ZM39.9273 253.403H19.1452L29.5349 269.93L39.9273 253.403Z" fill="white" fill-opacity="0.2"/>
</g>
<path d="M141.765 341.684L152.949 359.466L152.157 359.881L140.976 342.099L141.765 341.684Z" fill="white" fill-opacity="0.2"/>
<path d="M197.686 217.214L208.868 234.996L208.079 235.413L196.894 217.632L197.686 217.214Z" fill="white" fill-opacity="0.2"/>
<path d="M108.215 288.759L97.0335 306.536L96.2416 306.121L107.426 288.337L108.215 288.759Z" fill="white" fill-opacity="0.2"/>
</svg>
