<svg width="323" height="711" viewBox="0 0 323 711" fill="none" xmlns="http://www.w3.org/2000/svg">
<g clip-path="url(#clip0_175_430)">
<path fill-rule="evenodd" clip-rule="evenodd" d="M318.968 410.633L259.02 376.145L259.491 306.789C279.825 318.483 300.142 330.204 320.487 341.884L320.016 411.236L318.968 410.633ZM260.432 375.361L318.626 408.843L319.075 342.664L260.881 309.182L260.432 375.361Z" fill="white" fill-opacity="0.12"/>
<path fill-rule="evenodd" clip-rule="evenodd" d="M260.309 341.272L319.904 375.56L319.198 376.751L259.606 342.465L260.309 341.272Z" fill="white" fill-opacity="0.12"/>
<path fill-rule="evenodd" clip-rule="evenodd" d="M318.508 478.399L257.858 443.511C278.586 431.956 299.304 420.394 320.025 408.853L319.549 479.002L318.508 478.399ZM260.667 443.53L318.159 476.609L318.603 411.227L260.667 443.53Z" fill="white" fill-opacity="0.12"/>
<path fill-rule="evenodd" clip-rule="evenodd" d="M319.443 444.518L289.409 461.263L288.712 460.06L318.739 443.321L319.443 444.518Z" fill="white" fill-opacity="0.12"/>
<path fill-rule="evenodd" clip-rule="evenodd" d="M-39.1553 339.043L-97.3497 305.56L-38.7064 272.863L19.4914 306.353L-39.1553 339.043ZM-99.1071 306.144L-39.1661 340.633C-18.6887 329.192 1.81271 317.792 22.2969 306.372C1.96957 294.668 -18.3542 282.954 -38.6956 271.277C-59.1901 282.677 -79.671 294.121 -100.155 305.541L-99.1071 306.144Z" fill="white" fill-opacity="0.12"/>
<path fill-rule="evenodd" clip-rule="evenodd" d="M19.2781 440.694L-38.9128 407.218L-38.4638 341.036L19.7271 374.515L19.2781 440.694ZM-39.9715 408.199L20.6717 443.087L21.1421 373.731C0.814823 362.027 -19.5195 350.33 -39.8539 338.64C-40.0003 361.757 -40.1293 384.881 -40.3244 407.999L-39.9715 408.199Z" fill="white" fill-opacity="0.12"/>
<path fill-rule="evenodd" clip-rule="evenodd" d="M-39.7418 374.312L19.8533 408.605L20.5593 407.418L-39.0358 373.129L-39.7418 374.312Z" fill="white" fill-opacity="0.12"/>
<path fill-rule="evenodd" clip-rule="evenodd" d="M79.3328 407.22L21.8371 374.137L79.7763 341.838L79.3328 407.22ZM20.0831 374.718L80.7228 409.613L81.1987 339.461C60.4706 351.009 39.7528 362.567 19.0316 374.118L20.0831 374.718Z" fill="white" fill-opacity="0.12"/>
<path fill-rule="evenodd" clip-rule="evenodd" d="M79.906 373.932L49.8855 390.674L50.5788 391.87L80.6028 375.129L79.906 373.932Z" fill="white" fill-opacity="0.12"/>
<path fill-rule="evenodd" clip-rule="evenodd" d="M80.8325 341.246L141.239 307.577L141.71 238.215C121.222 249.642 100.728 261.052 80.2468 272.486L79.7764 341.838L80.8325 341.246ZM139.842 306.771L81.1988 339.461L81.6477 273.285L140.291 240.595L139.842 306.771Z" fill="white" fill-opacity="0.12"/>
<path fill-rule="evenodd" clip-rule="evenodd" d="M140.424 272.69L80.3726 306.163L81.0624 307.367L141.117 273.886L140.424 272.69Z" fill="white" fill-opacity="0.12"/>
<path fill-rule="evenodd" clip-rule="evenodd" d="M81.062 204.518L19.951 238.587L81.6423 274.078L82.1181 203.933L81.062 204.518ZM22.7565 238.606L80.6957 206.306L80.2522 271.686L22.7565 238.606Z" fill="white" fill-opacity="0.12"/>
<path fill-rule="evenodd" clip-rule="evenodd" d="M81.5301 238.409L51.736 221.265L51.0265 222.452L80.8172 239.596L81.5301 238.409Z" fill="white" fill-opacity="0.12"/>
<path fill-rule="evenodd" clip-rule="evenodd" d="M199.789 340.861L138.678 374.93L200.37 410.425L200.845 340.273L199.789 340.861ZM141.484 374.949L199.423 342.65L198.98 408.032L141.484 374.949Z" fill="white" fill-opacity="0.12"/>
<path fill-rule="evenodd" clip-rule="evenodd" d="M200.257 374.752L170.463 357.604L169.754 358.798L199.551 375.939L200.257 374.752Z" fill="white" fill-opacity="0.12"/>
<path fill-rule="evenodd" clip-rule="evenodd" d="M139.275 442.104L78.1672 476.17C98.7297 488.001 119.289 499.846 139.855 511.668L140.331 441.515L139.275 442.104ZM80.9692 476.189L138.912 443.889L138.468 509.275L80.9692 476.189Z" fill="white" fill-opacity="0.12"/>
<path fill-rule="evenodd" clip-rule="evenodd" d="M139.746 475.995L109.949 458.847L109.239 460.041L139.037 477.182L139.746 475.995Z" fill="white" fill-opacity="0.12"/>
<path fill-rule="evenodd" clip-rule="evenodd" d="M200.479 342.057L260.886 308.389L261.357 239.026C240.869 250.453 220.378 261.863 199.894 273.297L199.423 342.649L200.479 342.057ZM259.485 307.582L200.846 340.272L201.294 274.097L259.934 241.407L259.485 307.582Z" fill="white" fill-opacity="0.12"/>
<path fill-rule="evenodd" clip-rule="evenodd" d="M260.07 273.501L200.019 306.975L200.709 308.178L260.76 274.698L260.07 273.501Z" fill="white" fill-opacity="0.12"/>
<path fill-rule="evenodd" clip-rule="evenodd" d="M21.8207 273.679L49.5118 289.614L21.6071 305.169L21.8207 273.679ZM51.2728 289.027L20.4272 271.28L20.1812 307.549L52.3208 289.633L51.2728 289.027Z" fill="white" fill-opacity="0.12"/>
<path fill-rule="evenodd" clip-rule="evenodd" d="M80.143 442.894L140.55 409.226L140.791 373.749C120.303 385.17 99.8083 396.58 79.3275 408.013L79.0869 443.483L80.143 442.894ZM139.153 408.419L80.5093 441.109L80.7283 408.82L139.372 376.13L139.153 408.419Z" fill="white" fill-opacity="0.12"/>
<path fill-rule="evenodd" clip-rule="evenodd" d="M140.544 410.019L168.246 425.957L140.331 441.515L140.544 410.019ZM170.004 425.37L139.158 407.619L138.912 443.896L171.048 425.976L170.004 425.37Z" fill="white" fill-opacity="0.12"/>
<path fill-rule="evenodd" clip-rule="evenodd" d="M199.56 477.592L259.967 443.917L260.207 408.448C239.72 419.864 219.225 431.278 198.744 442.712L198.504 478.178L199.56 477.592ZM258.566 443.118L199.926 475.807L200.145 443.511L258.785 410.821L258.566 443.118Z" fill="white" fill-opacity="0.12"/>
<path fill-rule="evenodd" clip-rule="evenodd" d="M141.234 308.37L168.929 324.309L141.02 339.867L141.234 308.37ZM170.693 323.725L139.847 305.971L139.601 342.247L171.738 324.328L170.693 323.725Z" fill="white" fill-opacity="0.12"/>
<path fill-rule="evenodd" clip-rule="evenodd" d="M200.479 239.209L169.395 256.54C180.031 262.655 190.663 268.771 201.289 274.897L201.535 238.621L200.479 239.209ZM172.201 256.559L200.112 241.001L199.899 272.497L172.201 256.559Z" fill="white" fill-opacity="0.12"/>
</g>
<defs>
<clipPath id="clip0_175_430">
<rect width="720" height="706" fill="white" transform="matrix(0.999977 0.00678352 0.00678352 -0.999977 -402 705.983)"/>
</clipPath>
</defs>
</svg>
