<svg width="395" height="549" viewBox="0 0 395 549" fill="none" xmlns="http://www.w3.org/2000/svg">
<mask id="mask0_175_147" style="mask-type:luminance" maskUnits="userSpaceOnUse" x="122" y="265" width="32" height="20">
<path d="M122.417 265.825H153.489V284.16H122.417V265.825Z" fill="white"/>
</mask>
<g mask="url(#mask0_175_147)">
<path fill-rule="evenodd" clip-rule="evenodd" d="M142.808 283.802H122.768L132.908 266.244H153.183C149.801 272.095 146.419 277.946 143.045 283.802H142.808ZM124.21 282.971H142.565L151.748 267.074H133.385L124.21 282.971Z" fill="#9999FF" fill-opacity="0.5"/>
</g>
<mask id="mask1_175_147" style="mask-type:luminance" maskUnits="userSpaceOnUse" x="132" y="265" width="12" height="20">
<path d="M132.304 265.825H143.602V284.16H132.304V265.825Z" fill="white"/>
</mask>
<g mask="url(#mask1_175_147)">
<path fill-rule="evenodd" clip-rule="evenodd" d="M143.164 266.865L133.506 283.595L132.789 283.181L142.447 266.454L143.164 266.865Z" fill="#9999FF" fill-opacity="0.5"/>
</g>
<mask id="mask2_175_147" style="mask-type:luminance" maskUnits="userSpaceOnUse" x="83" y="248" width="42" height="37">
<path d="M83.5778 248.876H124.536V284.16H83.5778V248.876Z" fill="white"/>
</mask>
<g mask="url(#mask2_175_147)">
<path fill-rule="evenodd" clip-rule="evenodd" d="M104.531 249.729L124.21 283.802H84.1377L104.17 249.105L104.531 249.729ZM122.768 282.971L104.17 250.763L85.5721 282.971H122.768Z" fill="#9999FF" fill-opacity="0.5"/>
</g>
<mask id="mask3_175_147" style="mask-type:luminance" maskUnits="userSpaceOnUse" x="93" y="258" width="17" height="27">
<path d="M93.4642 258.057H109.706V284.16H93.4642V258.057Z" fill="white"/>
</mask>
<g mask="url(#mask3_175_147)">
<path fill-rule="evenodd" clip-rule="evenodd" d="M94.1566 283.181L108.644 258.087L109.361 258.504L94.8738 283.595L94.1566 283.181Z" fill="#9999FF" fill-opacity="0.5"/>
</g>
<mask id="mask4_175_147" style="mask-type:luminance" maskUnits="userSpaceOnUse" x="103" y="265" width="12" height="20">
<path d="M103.351 265.825H114.649V284.16H103.351V265.825Z" fill="white"/>
</mask>
<g mask="url(#mask4_175_147)">
<path fill-rule="evenodd" clip-rule="evenodd" d="M103.814 283.181L113.471 266.454L114.191 266.87L104.531 283.595L103.814 283.181Z" fill="#9999FF" fill-opacity="0.5"/>
</g>
<mask id="mask5_175_147" style="mask-type:luminance" maskUnits="userSpaceOnUse" x="113" y="274" width="7" height="11">
<path d="M113.237 274.299H119.593V284.16H113.237V274.299Z" fill="white"/>
</mask>
<g mask="url(#mask5_175_147)">
<path fill-rule="evenodd" clip-rule="evenodd" d="M113.472 283.181L118.302 274.812L119.019 275.231L114.192 283.595L113.472 283.181Z" fill="#9999FF" fill-opacity="0.5"/>
</g>
<path fill-rule="evenodd" clip-rule="evenodd" d="M142.808 249.105L161.406 216.9H124.21L142.808 249.105ZM162.482 216.688L142.808 250.763L122.768 216.064H162.843L162.482 216.688Z" fill="#9999FF" fill-opacity="0.5"/>
<path fill-rule="evenodd" clip-rule="evenodd" d="M133.506 216.274L147.994 241.368L147.28 241.776L132.789 216.688L133.506 216.274Z" fill="#9999FF" fill-opacity="0.5"/>
<path fill-rule="evenodd" clip-rule="evenodd" d="M143.164 216.274L152.821 232.999L152.104 233.415L142.447 216.688L143.164 216.274Z" fill="#9999FF" fill-opacity="0.5"/>
<path fill-rule="evenodd" clip-rule="evenodd" d="M152.821 216.274L157.651 224.638L156.934 225.051L152.104 216.688L152.821 216.274Z" fill="#9999FF" fill-opacity="0.5"/>
<path fill-rule="evenodd" clip-rule="evenodd" d="M75.2003 198.923L84.1378 183.442H66.2628L75.2003 198.923ZM85.2163 183.238L75.2003 200.584L64.8201 182.615H85.5777L85.2163 183.238Z" fill="#9999FF" fill-opacity="0.5"/>
<path fill-rule="evenodd" clip-rule="evenodd" d="M70.0143 191.186L74.8389 182.825L75.5588 183.238L70.7287 191.602L70.0143 191.186Z" fill="#9999FF" fill-opacity="0.5"/>
<mask id="mask6_175_147" style="mask-type:luminance" maskUnits="userSpaceOnUse" x="141" y="81" width="42" height="36">
<path d="M141.484 81.8418H182.442V116.822H141.484V81.8418Z" fill="white"/>
</mask>
<g mask="url(#mask6_175_147)">
<path fill-rule="evenodd" clip-rule="evenodd" d="M162.123 83.5024L143.525 115.708H180.721L162.123 83.5024ZM142.447 115.912L162.123 81.8418L182.158 116.538H142.088L142.447 115.912Z" fill="#9999FF" fill-opacity="0.5"/>
</g>
<path fill-rule="evenodd" clip-rule="evenodd" d="M171.425 116.331L156.934 91.24L157.657 90.8235L172.142 115.912L171.425 116.331Z" fill="#9999FF" fill-opacity="0.5"/>
<path fill-rule="evenodd" clip-rule="evenodd" d="M161.767 116.331L152.11 99.6065L152.821 99.1927L162.484 115.912L161.767 116.331Z" fill="#9999FF" fill-opacity="0.5"/>
<path fill-rule="evenodd" clip-rule="evenodd" d="M152.11 116.331L147.28 107.97L147.994 107.554L152.821 115.912L152.11 116.331Z" fill="#9999FF" fill-opacity="0.5"/>
<path fill-rule="evenodd" clip-rule="evenodd" d="M36.9262 132.642L46.9423 149.993H26.1874L36.5649 132.021L36.9262 132.642ZM45.5051 149.157L36.5649 133.682L27.6246 149.157H45.5051Z" fill="#9999FF" fill-opacity="0.5"/>
<path fill-rule="evenodd" clip-rule="evenodd" d="M32.0934 141.006L36.9262 149.372L36.209 149.783L31.3789 141.42L32.0934 141.006Z" fill="#9999FF" fill-opacity="0.5"/>
<path fill-rule="evenodd" clip-rule="evenodd" d="M-11.7252 116.952L-30.323 149.157H6.87249L-11.7252 116.952ZM-31.3988 149.367L-11.7252 115.297C-5.04418 126.86 1.6286 138.429 8.30966 149.993H-31.7601L-31.3988 149.367Z" fill="#9999FF" fill-opacity="0.5"/>
<path fill-rule="evenodd" clip-rule="evenodd" d="M7.58976 215.653L26.1875 183.442H-11.0052L7.58976 215.653ZM27.2688 183.238L7.58976 217.308L-12.4424 182.615H27.6247L27.2688 183.238Z" fill="#9999FF" fill-opacity="0.5"/>
<path fill-rule="evenodd" clip-rule="evenodd" d="M-1.70914 182.825L12.7757 207.91L12.064 208.327L-2.42358 183.238L-1.70914 182.825Z" fill="#9999FF" fill-opacity="0.5"/>
<path fill-rule="evenodd" clip-rule="evenodd" d="M7.95109 182.825L17.6058 199.549L16.8886 199.963L7.23389 183.238L7.95109 182.825Z" fill="#9999FF" fill-opacity="0.5"/>
<path fill-rule="evenodd" clip-rule="evenodd" d="M17.6058 182.825L22.4359 191.186L21.7159 191.602L16.8885 183.238L17.6058 182.825Z" fill="#9999FF" fill-opacity="0.5"/>
<path fill-rule="evenodd" clip-rule="evenodd" d="M65.54 183.442H26.1874C32.794 172.025 39.3978 160.597 45.9851 149.163L85.5722 149.157C78.9766 160.591 72.3811 172.02 65.78 183.442H65.54ZM27.6246 182.615H65.3028L84.1378 149.993H46.4651L27.6246 182.615Z" fill="#9999FF" fill-opacity="0.5"/>
<path fill-rule="evenodd" clip-rule="evenodd" d="M75.5588 149.786L56.2411 183.238L55.5239 182.825L74.8389 149.367L75.5588 149.786Z" fill="#9999FF" fill-opacity="0.5"/>
<path fill-rule="evenodd" clip-rule="evenodd" d="M65.9014 149.786L46.5837 183.238L45.8665 182.825L65.1814 149.367L65.9014 149.786Z" fill="#9999FF" fill-opacity="0.5"/>
<path fill-rule="evenodd" clip-rule="evenodd" d="M56.2412 149.786L36.9207 183.238L36.209 182.825L55.524 149.367L56.2412 149.786Z" fill="#9999FF" fill-opacity="0.5"/>
<mask id="mask7_175_147" style="mask-type:luminance" maskUnits="userSpaceOnUse" x="-13" y="215" width="61" height="70">
<path d="M-12.4617 215.686H47.3037V284.16H-12.4617V215.686Z" fill="white"/>
</mask>
<g mask="url(#mask7_175_147)">
<path fill-rule="evenodd" clip-rule="evenodd" d="M7.23385 283.595L-12.2025 249.936C-5.69518 238.64 0.828642 227.355 7.35523 216.064H46.9423C33.8257 238.786 20.7118 261.505 7.5897 284.216L7.23385 283.595ZM-11.248 249.936L7.5897 282.56L45.5051 216.9H7.83244L-11.248 249.936Z" fill="#9999FF" fill-opacity="0.5"/>
</g>
<path fill-rule="evenodd" clip-rule="evenodd" d="M36.9262 216.688L3.1182 275.231L2.40375 274.812L36.209 216.274L36.9262 216.688Z" fill="#9999FF" fill-opacity="0.5"/>
<path fill-rule="evenodd" clip-rule="evenodd" d="M27.2688 216.688L-1.70638 266.87L-2.42358 266.454L26.5488 216.274L27.2688 216.688Z" fill="#9999FF" fill-opacity="0.5"/>
<path fill-rule="evenodd" clip-rule="evenodd" d="M17.6058 216.688L-6.5337 258.506L-7.25366 258.087L16.8914 216.274L17.6058 216.688Z" fill="#9999FF" fill-opacity="0.5"/>
<path fill-rule="evenodd" clip-rule="evenodd" d="M65.54 249.105L84.1377 216.9H46.9423L65.54 249.105ZM85.2163 216.688L65.54 250.763C58.859 239.203 52.1889 227.628 45.5051 216.064H85.5722L85.2163 216.688Z" fill="#9999FF" fill-opacity="0.5"/>
<path fill-rule="evenodd" clip-rule="evenodd" d="M56.2384 216.274L70.7287 241.368L70.0115 241.782L55.5239 216.688L56.2384 216.274Z" fill="#9999FF" fill-opacity="0.5"/>
<path fill-rule="evenodd" clip-rule="evenodd" d="M65.9014 216.274L75.5588 232.999L74.8389 233.418L65.1814 216.688L65.9014 216.274Z" fill="#9999FF" fill-opacity="0.5"/>
<path fill-rule="evenodd" clip-rule="evenodd" d="M75.5588 216.274L80.3862 224.638L79.669 225.051L74.8389 216.688L75.5588 216.274Z" fill="#9999FF" fill-opacity="0.5"/>
<path fill-rule="evenodd" clip-rule="evenodd" d="M26.9102 115.297L35.8504 99.8133H17.9671L26.9102 115.297ZM36.9262 99.6065L26.9102 116.952L16.53 98.983H37.2876L36.9262 99.6065Z" fill="#9999FF" fill-opacity="0.5"/>
<path fill-rule="evenodd" clip-rule="evenodd" d="M21.7214 107.554L26.5488 99.1927L27.2688 99.601L22.4386 107.965L21.7214 107.554Z" fill="#9999FF" fill-opacity="0.5"/>
<path fill-rule="evenodd" clip-rule="evenodd" d="M104.17 116.952L85.3376 149.576L104.17 182.198L123.01 149.576L104.17 116.952ZM84.4991 149.367L104.17 115.297C110.776 126.72 117.38 138.14 123.97 149.576C117.38 161.01 110.771 172.431 104.17 183.859C97.5743 172.431 90.9787 161.002 84.3777 149.576L84.4991 149.367Z" fill="#9999FF" fill-opacity="0.5"/>
<path fill-rule="evenodd" clip-rule="evenodd" d="M118.302 158.144L98.9839 124.695L99.7039 124.281L119.019 157.731L118.302 158.144Z" fill="#9999FF" fill-opacity="0.5"/>
<path fill-rule="evenodd" clip-rule="evenodd" d="M113.472 166.508L94.1566 133.059L94.8738 132.642L114.192 166.094L113.472 166.508Z" fill="#9999FF" fill-opacity="0.5"/>
<path fill-rule="evenodd" clip-rule="evenodd" d="M108.644 174.872L89.3265 141.42L90.0464 141.006L109.361 174.461L108.644 174.872Z" fill="#9999FF" fill-opacity="0.5"/>
<path fill-rule="evenodd" clip-rule="evenodd" d="M75.1975 132.021L84.3778 116.127L75.1975 100.227L66.0173 116.127L75.1975 132.021ZM85.2163 116.331L75.1975 133.682L65.0573 116.127L75.1975 98.5665C78.5767 104.423 81.9641 110.271 85.3322 116.127L85.2163 116.331Z" fill="#9999FF" fill-opacity="0.5"/>
<path fill-rule="evenodd" clip-rule="evenodd" d="M70.0115 124.281L79.669 107.554L80.3834 107.965L70.7287 124.695L70.0115 124.281Z" fill="#9999FF" fill-opacity="0.5"/>
<path fill-rule="evenodd" clip-rule="evenodd" d="M161.762 216.688L122.773 149.157H201.473C188.362 171.882 175.245 194.601 162.123 217.308L161.762 216.688ZM124.21 149.993L162.12 215.653L200.036 149.993H124.21Z" fill="#9999FF" fill-opacity="0.5"/>
<path fill-rule="evenodd" clip-rule="evenodd" d="M191.451 149.786L157.651 208.327L156.934 207.91L190.737 149.367L191.451 149.786Z" fill="#9999FF" fill-opacity="0.5"/>
<path fill-rule="evenodd" clip-rule="evenodd" d="M152.104 199.549L181.079 149.367L181.796 149.786L152.821 199.963L152.104 199.549Z" fill="#9999FF" fill-opacity="0.5"/>
<path fill-rule="evenodd" clip-rule="evenodd" d="M172.139 149.786L147.994 191.602L147.274 191.183L171.419 149.367L172.139 149.786Z" fill="#9999FF" fill-opacity="0.5"/>
<path fill-rule="evenodd" clip-rule="evenodd" d="M142.447 182.825L161.762 149.367L162.482 149.786L143.164 183.238L142.447 182.825Z" fill="#9999FF" fill-opacity="0.5"/>
<path fill-rule="evenodd" clip-rule="evenodd" d="M152.821 149.783L138.337 174.872L137.617 174.461L152.104 149.372L152.821 149.783Z" fill="#9999FF" fill-opacity="0.5"/>
<path fill-rule="evenodd" clip-rule="evenodd" d="M132.784 166.094L142.447 149.367L143.161 149.786L133.506 166.508L132.784 166.094Z" fill="#9999FF" fill-opacity="0.5"/>
<path fill-rule="evenodd" clip-rule="evenodd" d="M133.506 149.783L128.676 158.144L127.959 157.736L132.784 149.372L133.506 149.783Z" fill="#9999FF" fill-opacity="0.5"/>
<path fill-rule="evenodd" clip-rule="evenodd" d="M123.129 216.688L113.116 199.34H133.868C130.409 205.331 126.955 211.325 123.49 217.308L123.129 216.688ZM114.553 200.173L123.49 215.653L132.431 200.173H114.553Z" fill="#9999FF" fill-opacity="0.5"/>
<path fill-rule="evenodd" clip-rule="evenodd" d="M127.959 208.327L123.129 199.963L123.849 199.549L128.676 207.91L127.959 208.327Z" fill="#9999FF" fill-opacity="0.5"/>
<path fill-rule="evenodd" clip-rule="evenodd" d="M181.675 249.519H219.353L200.516 216.9H162.843L181.675 249.519ZM220.071 250.35H181.198C174.594 238.927 168.001 227.493 161.406 216.064H200.996C207.58 227.501 214.184 238.927 220.79 250.35H220.071Z" fill="#9999FF" fill-opacity="0.5"/>
<path fill-rule="evenodd" clip-rule="evenodd" d="M172.139 216.274L191.454 249.729L190.737 250.145L171.425 216.688L172.139 216.274Z" fill="#9999FF" fill-opacity="0.5"/>
<path fill-rule="evenodd" clip-rule="evenodd" d="M181.796 216.274L201.111 249.729L200.394 250.145L181.079 216.688L181.796 216.274Z" fill="#9999FF" fill-opacity="0.5"/>
<path fill-rule="evenodd" clip-rule="evenodd" d="M191.454 216.274L210.772 249.729L210.052 250.145L190.737 216.688L191.454 216.274Z" fill="#9999FF" fill-opacity="0.5"/>
<path fill-rule="evenodd" clip-rule="evenodd" d="M258.347 250.14L219.359 182.615H298.053C284.947 205.337 271.82 228.047 258.703 250.763L258.347 250.14ZM220.793 183.442L258.703 249.105L296.621 183.442H220.793Z" fill="#9999FF" fill-opacity="0.5"/>
<path fill-rule="evenodd" clip-rule="evenodd" d="M288.04 183.238L254.237 241.776L253.517 241.368L287.32 182.825L288.04 183.238Z" fill="#9999FF" fill-opacity="0.5"/>
<path fill-rule="evenodd" clip-rule="evenodd" d="M248.69 232.999L277.662 182.825L278.382 183.238L249.407 233.415L248.69 232.999Z" fill="#9999FF" fill-opacity="0.5"/>
<path fill-rule="evenodd" clip-rule="evenodd" d="M268.722 183.238L244.574 225.052L243.86 224.638L268.005 182.825L268.722 183.238Z" fill="#9999FF" fill-opacity="0.5"/>
<path fill-rule="evenodd" clip-rule="evenodd" d="M239.03 216.274L258.347 182.825L259.064 183.238L239.75 216.688L239.03 216.274Z" fill="#9999FF" fill-opacity="0.5"/>
<path fill-rule="evenodd" clip-rule="evenodd" d="M249.407 183.238L234.919 208.327L234.202 207.91L248.69 182.825L249.407 183.238Z" fill="#9999FF" fill-opacity="0.5"/>
<path fill-rule="evenodd" clip-rule="evenodd" d="M229.372 199.549L239.03 182.825L239.75 183.238L230.092 199.963L229.372 199.549Z" fill="#9999FF" fill-opacity="0.5"/>
<path fill-rule="evenodd" clip-rule="evenodd" d="M230.087 183.238L225.262 191.602L224.545 191.186L229.372 182.825L230.087 183.238Z" fill="#9999FF" fill-opacity="0.5"/>
<path fill-rule="evenodd" clip-rule="evenodd" d="M345.626 234.039L336.686 249.519H354.566L345.626 234.039ZM335.61 249.729L345.626 232.378C349.088 238.367 352.544 244.361 356.003 250.35H335.248L335.61 249.729Z" fill="#9999FF" fill-opacity="0.5"/>
<path fill-rule="evenodd" clip-rule="evenodd" d="M350.812 241.776L345.987 250.14L345.264 249.729L350.097 241.368L350.812 241.776Z" fill="#9999FF" fill-opacity="0.5"/>
<path fill-rule="evenodd" clip-rule="evenodd" d="M374.601 216.9H335.248C341.855 205.474 348.459 194.046 355.043 182.615H394.633C388.038 194.043 381.442 205.474 374.841 216.9H374.601ZM336.686 216.064H374.364L393.196 183.442H355.521L336.686 216.064Z" fill="#9999FF" fill-opacity="0.5"/>
<path fill-rule="evenodd" clip-rule="evenodd" d="M384.614 183.238L365.299 216.688L364.585 216.274L383.9 182.825L384.614 183.238Z" fill="#9999FF" fill-opacity="0.5"/>
<path fill-rule="evenodd" clip-rule="evenodd" d="M374.957 183.238L355.642 216.688L354.922 216.274L374.242 182.825L374.957 183.238Z" fill="#9999FF" fill-opacity="0.5"/>
<path fill-rule="evenodd" clip-rule="evenodd" d="M365.299 183.238L345.982 216.688L345.264 216.274L364.585 182.825L365.299 183.238Z" fill="#9999FF" fill-opacity="0.5"/>
<path fill-rule="evenodd" clip-rule="evenodd" d="M297.573 249.519H315.933L306.753 233.625H288.395L297.573 249.519ZM316.651 250.35H297.099C293.725 244.496 290.337 238.645 286.958 232.795H307.23L317.371 250.35H316.651Z" fill="#9999FF" fill-opacity="0.5"/>
<path fill-rule="evenodd" clip-rule="evenodd" d="M297.692 233.004L307.352 249.729L306.637 250.14L296.974 233.415L297.692 233.004Z" fill="#9999FF" fill-opacity="0.5"/>
</svg>
